<svg id="visual" viewBox="0 0 900 600" width="900" height="600" xmlns="http://www.w3.org/2000/svg" xmlns:xlink="http://www.w3.org/1999/xlink" version="1.1"><rect x="0" y="0" width="900" height="600" fill="#fff"></rect><path d="M0 312L15 337.7C30 363.3 60 414.7 90 439.2C120 463.7 150 461.3 180 441.5C210 421.7 240 384.3 270 371.2C300 358 330 369 360 381.5C390 394 420 408 450 422.2C480 436.3 510 450.7 540 448.5C570 446.3 600 427.7 630 413.5C660 399.3 690 389.7 720 388.5C750 387.3 780 394.7 810 384.2C840 373.7 870 345.3 885 331.2L900 317L900 601L885 601C870 601 840 601 810 601C780 601 750 601 720 601C690 601 660 601 630 601C600 601 570 601 540 601C510 601 480 601 450 601C420 601 390 601 360 601C330 601 300 601 270 601C240 601 210 601 180 601C150 601 120 601 90 601C60 601 30 601 15 601L0 601Z" fill="#082032" stroke-linecap="round" stroke-linejoin="miter"></path></svg>