<svg id="visual" viewBox="0 0 900 600" width="900" height="600" xmlns="http://www.w3.org/2000/svg" xmlns:xlink="http://www.w3.org/1999/xlink" version="1.1"><rect x="0" y="0" width="900" height="600" fill="#fff"></rect><path d="M0 517L15 524.3C30 531.7 60 546.3 90 553.3C120 560.3 150 559.7 180 554C210 548.3 240 537.7 270 533.8C300 530 330 533 360 536.7C390 540.3 420 544.7 450 548.8C480 553 510 557 540 556.3C570 555.7 600 550.3 630 546.2C660 542 690 539 720 538.7C750 538.3 780 540.7 810 537.7C840 534.7 870 526.3 885 522.2L900 518L900 601L885 601C870 601 840 601 810 601C780 601 750 601 720 601C690 601 660 601 630 601C600 601 570 601 540 601C510 601 480 601 450 601C420 601 390 601 360 601C330 601 300 601 270 601C240 601 210 601 180 601C150 601 120 601 90 601C60 601 30 601 15 601L0 601Z" fill="#2C394B" stroke-linecap="round" stroke-linejoin="miter"></path></svg>